<svg width="120" height="40" viewBox="0 0 120 40" fill="none" xmlns="http://www.w3.org/2000/svg">  <!-- Blue curved shape -->  <path d="M8 12 Q18 8 28 12 Q38 16 42 26 Q38 32 28 34 Q18 32 8 26 Q6 20 8 12 Z" fill="#2563EB"/>  <!-- Green U shape -->  <path d="M15 10 L15 22 Q15 28 20 28 Q25 28 25 22 L25 10 L28 10 L28 22 Q28 30 20 30 Q12 30 12 22 L12 10 Z" fill="#16A34A"/>  <!-- Red accent curve -->  <path d="M5 16 Q12 14 18 18 Q24 22 22 28 Q20 26 14 24 Q8 22 5 16 Z" fill="#DC2626"/>  <!-- Text "ラボ" with better positioning and size -->  <text x="50" y="18" font-family="Arial, sans-serif" font-size="14" font-weight="bold" fill="#2563EB">ラ</text>  <text x="65" y="18" font-family="Arial, sans-serif" font-size="14" font-weight="bold" fill="#16A34A">ボ</text></svg>